<svg width="2204" height="1307" viewBox="0 0 2204 1307" fill="none" xmlns="http://www.w3.org/2000/svg">
<g clip-path="url(#clip0_109_80)">
<rect width="2204" height="1307" fill="white"/>
<rect x="-327" width="2531" height="1307" fill="#434195"/>
<g opacity="0.6">
<ellipse cx="188.538" cy="117.706" rx="2.4359" ry="2.57042" fill="white"/>
<ellipse cx="188.538" cy="117.706" rx="2.4359" ry="2.57042" fill="white"/>
<ellipse cx="188.538" cy="117.706" rx="2.4359" ry="2.57042" fill="white"/>
<ellipse cx="188.538" cy="117.706" rx="2.4359" ry="2.57042" fill="white"/>
<ellipse cx="219.718" cy="104.339" rx="2.43589" ry="2.57042" fill="white"/>
<ellipse cx="219.718" cy="104.339" rx="2.43589" ry="2.57042" fill="white"/>
<ellipse cx="219.718" cy="104.339" rx="2.43589" ry="2.57042" fill="white"/>
<ellipse cx="219.718" cy="104.339" rx="2.43589" ry="2.57042" fill="white"/>
<ellipse cx="224.59" cy="150.607" rx="2.4359" ry="2.57042" fill="white"/>
<ellipse cx="224.59" cy="150.607" rx="2.4359" ry="2.57042" fill="white"/>
<ellipse cx="224.59" cy="150.607" rx="2.4359" ry="2.57042" fill="white"/>
<ellipse cx="224.59" cy="150.607" rx="2.4359" ry="2.57042" fill="white"/>
<ellipse cx="47.2565" cy="369.607" rx="2.4359" ry="2.57042" fill="white"/>
<ellipse cx="47.2565" cy="369.607" rx="2.4359" ry="2.57042" fill="white"/>
<ellipse cx="47.2565" cy="369.607" rx="2.4359" ry="2.57042" fill="white"/>
<ellipse cx="47.2565" cy="369.607" rx="2.4359" ry="2.57042" fill="white"/>
<ellipse cx="13.1539" cy="431.297" rx="2.4359" ry="2.57043" fill="white"/>
<ellipse cx="13.1539" cy="431.297" rx="2.4359" ry="2.57043" fill="white"/>
<ellipse cx="13.1539" cy="431.297" rx="2.4359" ry="2.57043" fill="white"/>
<ellipse cx="13.1539" cy="431.297" rx="2.4359" ry="2.57043" fill="white"/>
<ellipse cx="199.256" cy="336.706" rx="2.4359" ry="2.57043" fill="white"/>
<ellipse cx="199.256" cy="336.706" rx="2.4359" ry="2.57043" fill="white"/>
<ellipse cx="199.256" cy="336.706" rx="2.4359" ry="2.57043" fill="white"/>
<ellipse cx="199.256" cy="336.706" rx="2.4359" ry="2.57043" fill="white"/>
<ellipse cx="282.564" cy="464.199" rx="2.4359" ry="2.57042" fill="white"/>
<ellipse cx="282.564" cy="464.199" rx="2.4359" ry="2.57042" fill="white"/>
<ellipse cx="282.564" cy="464.199" rx="2.4359" ry="2.57042" fill="white"/>
<ellipse cx="282.564" cy="464.199" rx="2.4359" ry="2.57042" fill="white"/>
<ellipse cx="135.436" cy="455.973" rx="2.4359" ry="2.57043" fill="white"/>
<ellipse cx="135.436" cy="455.973" rx="2.4359" ry="2.57043" fill="white"/>
<ellipse cx="135.436" cy="455.973" rx="2.4359" ry="2.57043" fill="white"/>
<ellipse cx="135.436" cy="455.973" rx="2.4359" ry="2.57043" fill="white"/>
</g>
<g opacity="0.6">
<ellipse cx="761.271" cy="340.775" rx="3.12793" ry="3.13754" transform="rotate(101.623 761.271 340.775)" fill="white"/>
<ellipse cx="761.271" cy="340.775" rx="3.12793" ry="3.13754" transform="rotate(101.623 761.271 340.775)" fill="white"/>
<ellipse cx="761.271" cy="340.775" rx="3.12793" ry="3.13754" transform="rotate(101.623 761.271 340.775)" fill="white"/>
<ellipse cx="761.271" cy="340.775" rx="3.12793" ry="3.13754" transform="rotate(101.623 761.271 340.775)" fill="white"/>
<ellipse cx="769.186" cy="383.279" rx="3.12791" ry="3.13754" transform="rotate(101.623 769.186 383.279)" fill="white"/>
<ellipse cx="769.186" cy="383.279" rx="3.12791" ry="3.13754" transform="rotate(101.623 769.186 383.279)" fill="white"/>
<ellipse cx="769.186" cy="383.279" rx="3.12791" ry="3.13754" transform="rotate(101.623 769.186 383.279)" fill="white"/>
<ellipse cx="769.186" cy="383.279" rx="3.12791" ry="3.13754" transform="rotate(101.623 769.186 383.279)" fill="white"/>
<ellipse cx="712.608" cy="378.028" rx="3.12791" ry="3.13754" transform="rotate(101.623 712.608 378.028)" fill="white"/>
<ellipse cx="712.608" cy="378.028" rx="3.12791" ry="3.13754" transform="rotate(101.623 712.608 378.028)" fill="white"/>
<ellipse cx="712.608" cy="378.028" rx="3.12791" ry="3.13754" transform="rotate(101.623 712.608 378.028)" fill="white"/>
<ellipse cx="712.608" cy="378.028" rx="3.12791" ry="3.13754" transform="rotate(101.623 712.608 378.028)" fill="white"/>
<ellipse cx="496.65" cy="101.127" rx="3.12792" ry="3.13753" transform="rotate(101.623 496.65 101.127)" fill="white"/>
<ellipse cx="496.65" cy="101.127" rx="3.12792" ry="3.13753" transform="rotate(101.623 496.65 101.127)" fill="white"/>
<ellipse cx="496.65" cy="101.127" rx="3.12792" ry="3.13753" transform="rotate(101.623 496.65 101.127)" fill="white"/>
<ellipse cx="496.65" cy="101.127" rx="3.12792" ry="3.13753" transform="rotate(101.623 496.65 101.127)" fill="white"/>
<ellipse cx="431.716" cy="43.063" rx="3.12792" ry="3.13754" transform="rotate(101.623 431.716 43.063)" fill="white"/>
<ellipse cx="431.716" cy="43.063" rx="3.12792" ry="3.13754" transform="rotate(101.623 431.716 43.063)" fill="white"/>
<ellipse cx="431.716" cy="43.063" rx="3.12792" ry="3.13754" transform="rotate(101.623 431.716 43.063)" fill="white"/>
<ellipse cx="431.716" cy="43.063" rx="3.12792" ry="3.13754" transform="rotate(101.623 431.716 43.063)" fill="white"/>
<ellipse cx="496.662" cy="300.398" rx="3.12793" ry="3.13753" transform="rotate(101.623 496.662 300.398)" fill="white"/>
<ellipse cx="496.662" cy="300.398" rx="3.12793" ry="3.13753" transform="rotate(101.623 496.662 300.398)" fill="white"/>
<ellipse cx="496.662" cy="300.398" rx="3.12793" ry="3.13753" transform="rotate(101.623 496.662 300.398)" fill="white"/>
<ellipse cx="496.662" cy="300.398" rx="3.12793" ry="3.13753" transform="rotate(101.623 496.662 300.398)" fill="white"/>
<ellipse cx="322.679" cy="373.825" rx="3.12791" ry="3.13754" transform="rotate(101.623 322.679 373.825)" fill="white"/>
<ellipse cx="322.679" cy="373.825" rx="3.12791" ry="3.13754" transform="rotate(101.623 322.679 373.825)" fill="white"/>
<ellipse cx="322.679" cy="373.825" rx="3.12791" ry="3.13754" transform="rotate(101.623 322.679 373.825)" fill="white"/>
<ellipse cx="322.679" cy="373.825" rx="3.12791" ry="3.13754" transform="rotate(101.623 322.679 373.825)" fill="white"/>
<ellipse cx="370.577" cy="190.796" rx="3.12792" ry="3.13753" transform="rotate(101.623 370.577 190.796)" fill="white"/>
<ellipse cx="370.577" cy="190.796" rx="3.12792" ry="3.13753" transform="rotate(101.623 370.577 190.796)" fill="white"/>
<ellipse cx="370.577" cy="190.796" rx="3.12792" ry="3.13753" transform="rotate(101.623 370.577 190.796)" fill="white"/>
<ellipse cx="370.577" cy="190.796" rx="3.12792" ry="3.13753" transform="rotate(101.623 370.577 190.796)" fill="white"/>
<ellipse cx="826.185" cy="75.0242" rx="3.12792" ry="3.13754" transform="rotate(101.623 826.185 75.0242)" fill="white"/>
<ellipse cx="826.185" cy="75.0242" rx="3.12792" ry="3.13754" transform="rotate(101.623 826.185 75.0242)" fill="white"/>
<ellipse cx="826.185" cy="75.0242" rx="3.12792" ry="3.13754" transform="rotate(101.623 826.185 75.0242)" fill="white"/>
<ellipse cx="826.185" cy="75.0242" rx="3.12792" ry="3.13754" transform="rotate(101.623 826.185 75.0242)" fill="white"/>
</g>
<g opacity="0.4">
<ellipse cx="246.552" cy="833.258" rx="2.51131" ry="2.65493" fill="white"/>
<ellipse cx="246.552" cy="833.258" rx="2.51131" ry="2.65493" fill="white"/>
<ellipse cx="246.552" cy="833.258" rx="2.51131" ry="2.65493" fill="white"/>
<ellipse cx="246.552" cy="833.258" rx="2.51131" ry="2.65493" fill="white"/>
<ellipse cx="278.697" cy="819.452" rx="2.51131" ry="2.65493" fill="white"/>
<ellipse cx="278.697" cy="819.452" rx="2.51131" ry="2.65493" fill="white"/>
<ellipse cx="278.697" cy="819.452" rx="2.51131" ry="2.65493" fill="white"/>
<ellipse cx="278.697" cy="819.452" rx="2.51131" ry="2.65493" fill="white"/>
<ellipse cx="283.719" cy="867.241" rx="2.51132" ry="2.65493" fill="white"/>
<ellipse cx="283.719" cy="867.241" rx="2.51132" ry="2.65493" fill="white"/>
<ellipse cx="283.719" cy="867.241" rx="2.51132" ry="2.65493" fill="white"/>
<ellipse cx="283.719" cy="867.241" rx="2.51132" ry="2.65493" fill="white"/>
<ellipse cx="15.5113" cy="1127.42" rx="2.51131" ry="2.65492" fill="white"/>
<ellipse cx="15.5113" cy="1127.42" rx="2.51131" ry="2.65492" fill="white"/>
<ellipse cx="15.5113" cy="1127.42" rx="2.51131" ry="2.65492" fill="white"/>
<ellipse cx="15.5113" cy="1127.42" rx="2.51131" ry="2.65492" fill="white"/>
<ellipse cx="100.896" cy="1093.44" rx="2.51131" ry="2.65492" fill="white"/>
<ellipse cx="100.896" cy="1093.44" rx="2.51131" ry="2.65492" fill="white"/>
<ellipse cx="100.896" cy="1093.44" rx="2.51131" ry="2.65492" fill="white"/>
<ellipse cx="100.896" cy="1093.44" rx="2.51131" ry="2.65492" fill="white"/>
<ellipse cx="65.7376" cy="1157.16" rx="2.51131" ry="2.65494" fill="white"/>
<ellipse cx="65.7376" cy="1157.16" rx="2.51131" ry="2.65494" fill="white"/>
<ellipse cx="65.7376" cy="1157.16" rx="2.51131" ry="2.65494" fill="white"/>
<ellipse cx="65.7376" cy="1157.16" rx="2.51131" ry="2.65494" fill="white"/>
<ellipse cx="257.602" cy="1059.46" rx="2.51131" ry="2.65493" fill="white"/>
<ellipse cx="257.602" cy="1059.46" rx="2.51131" ry="2.65493" fill="white"/>
<ellipse cx="257.602" cy="1059.46" rx="2.51131" ry="2.65493" fill="white"/>
<ellipse cx="257.602" cy="1059.46" rx="2.51131" ry="2.65493" fill="white"/>
<ellipse cx="343.489" cy="1191.14" rx="2.51131" ry="2.65492" fill="white"/>
<ellipse cx="343.489" cy="1191.14" rx="2.51131" ry="2.65492" fill="white"/>
<ellipse cx="343.489" cy="1191.14" rx="2.51131" ry="2.65492" fill="white"/>
<ellipse cx="343.489" cy="1191.14" rx="2.51131" ry="2.65492" fill="white"/>
<ellipse cx="191.806" cy="1182.65" rx="2.51131" ry="2.65492" fill="white"/>
<ellipse cx="191.806" cy="1182.65" rx="2.51131" ry="2.65492" fill="white"/>
<ellipse cx="191.806" cy="1182.65" rx="2.51131" ry="2.65492" fill="white"/>
<ellipse cx="191.806" cy="1182.65" rx="2.51131" ry="2.65492" fill="white"/>
<ellipse cx="27.0633" cy="824.762" rx="2.51131" ry="2.65493" fill="white"/>
<ellipse cx="27.0633" cy="824.762" rx="2.51131" ry="2.65493" fill="white"/>
<ellipse cx="27.0633" cy="824.762" rx="2.51131" ry="2.65493" fill="white"/>
<ellipse cx="27.0633" cy="824.762" rx="2.51131" ry="2.65493" fill="white"/>
</g>
<g opacity="0.4">
<ellipse cx="2051.98" cy="1294.32" rx="2.51088" ry="2.65345" transform="rotate(101.623 2051.98 1294.32)" fill="white"/>
<ellipse cx="2051.98" cy="1294.32" rx="2.51088" ry="2.65345" transform="rotate(101.623 2051.98 1294.32)" fill="white"/>
<ellipse cx="2051.98" cy="1294.32" rx="2.51088" ry="2.65345" transform="rotate(101.623 2051.98 1294.32)" fill="white"/>
<ellipse cx="2051.98" cy="1294.32" rx="2.51088" ry="2.65345" transform="rotate(101.623 2051.98 1294.32)" fill="white"/>
<ellipse cx="1810.55" cy="1008.82" rx="2.51088" ry="2.65344" transform="rotate(101.623 1810.55 1008.82)" fill="white"/>
<ellipse cx="1810.55" cy="1008.82" rx="2.51088" ry="2.65344" transform="rotate(101.623 1810.55 1008.82)" fill="white"/>
<ellipse cx="1810.55" cy="1008.82" rx="2.51088" ry="2.65344" transform="rotate(101.623 1810.55 1008.82)" fill="white"/>
<ellipse cx="1810.55" cy="1008.82" rx="2.51088" ry="2.65344" transform="rotate(101.623 1810.55 1008.82)" fill="white"/>
<ellipse cx="1826.62" cy="1099.29" rx="2.51088" ry="2.65346" transform="rotate(101.623 1826.62 1099.29)" fill="white"/>
<ellipse cx="1826.62" cy="1099.29" rx="2.51088" ry="2.65346" transform="rotate(101.623 1826.62 1099.29)" fill="white"/>
<ellipse cx="1826.62" cy="1099.29" rx="2.51088" ry="2.65346" transform="rotate(101.623 1826.62 1099.29)" fill="white"/>
<ellipse cx="1826.62" cy="1099.29" rx="2.51088" ry="2.65346" transform="rotate(101.623 1826.62 1099.29)" fill="white"/>
<ellipse cx="1771.32" cy="1052.02" rx="2.51088" ry="2.65344" transform="rotate(101.623 1771.32 1052.02)" fill="white"/>
<ellipse cx="1771.32" cy="1052.02" rx="2.51088" ry="2.65344" transform="rotate(101.623 1771.32 1052.02)" fill="white"/>
<ellipse cx="1771.32" cy="1052.02" rx="2.51088" ry="2.65344" transform="rotate(101.623 1771.32 1052.02)" fill="white"/>
<ellipse cx="1771.32" cy="1052.02" rx="2.51088" ry="2.65344" transform="rotate(101.623 1771.32 1052.02)" fill="white"/>
<ellipse cx="1828.32" cy="1259.6" rx="2.51088" ry="2.65345" transform="rotate(101.623 1828.32 1259.6)" fill="white"/>
<ellipse cx="1828.32" cy="1259.6" rx="2.51088" ry="2.65345" transform="rotate(101.623 1828.32 1259.6)" fill="white"/>
<ellipse cx="1828.32" cy="1259.6" rx="2.51088" ry="2.65345" transform="rotate(101.623 1828.32 1259.6)" fill="white"/>
<ellipse cx="1828.32" cy="1259.6" rx="2.51088" ry="2.65345" transform="rotate(101.623 1828.32 1259.6)" fill="white"/>
<ellipse cx="1720.98" cy="1170.35" rx="2.51088" ry="2.65346" transform="rotate(101.623 1720.98 1170.35)" fill="white"/>
<ellipse cx="1720.98" cy="1170.35" rx="2.51088" ry="2.65346" transform="rotate(101.623 1720.98 1170.35)" fill="white"/>
<ellipse cx="1720.98" cy="1170.35" rx="2.51088" ry="2.65346" transform="rotate(101.623 1720.98 1170.35)" fill="white"/>
<ellipse cx="1720.98" cy="1170.35" rx="2.51088" ry="2.65346" transform="rotate(101.623 1720.98 1170.35)" fill="white"/>
<ellipse cx="2104.51" cy="1081.08" rx="2.51088" ry="2.65345" transform="rotate(101.623 2104.51 1081.08)" fill="white"/>
<ellipse cx="2104.51" cy="1081.08" rx="2.51088" ry="2.65345" transform="rotate(101.623 2104.51 1081.08)" fill="white"/>
<ellipse cx="2104.51" cy="1081.08" rx="2.51088" ry="2.65345" transform="rotate(101.623 2104.51 1081.08)" fill="white"/>
<ellipse cx="2104.51" cy="1081.08" rx="2.51088" ry="2.65345" transform="rotate(101.623 2104.51 1081.08)" fill="white"/>
</g>
<g opacity="0.4">
<ellipse cx="695.862" cy="1246.56" rx="4.12508" ry="2.69367" transform="rotate(179.134 695.862 1246.56)" fill="white"/>
<ellipse cx="695.862" cy="1246.56" rx="4.12508" ry="2.69367" transform="rotate(179.134 695.862 1246.56)" fill="white"/>
<ellipse cx="695.862" cy="1246.56" rx="4.12508" ry="2.69367" transform="rotate(179.134 695.862 1246.56)" fill="white"/>
<ellipse cx="695.862" cy="1246.56" rx="4.12508" ry="2.69367" transform="rotate(179.134 695.862 1246.56)" fill="white"/>
<ellipse cx="643.279" cy="1261.36" rx="4.12508" ry="2.69367" transform="rotate(179.134 643.279 1261.36)" fill="white"/>
<ellipse cx="643.279" cy="1261.36" rx="4.12508" ry="2.69367" transform="rotate(179.134 643.279 1261.36)" fill="white"/>
<ellipse cx="643.279" cy="1261.36" rx="4.12508" ry="2.69367" transform="rotate(179.134 643.279 1261.36)" fill="white"/>
<ellipse cx="643.279" cy="1261.36" rx="4.12508" ry="2.69367" transform="rotate(179.134 643.279 1261.36)" fill="white"/>
<ellipse cx="634.297" cy="1213" rx="4.12508" ry="2.69367" transform="rotate(179.134 634.297 1213)" fill="white"/>
<ellipse cx="634.297" cy="1213" rx="4.12508" ry="2.69367" transform="rotate(179.134 634.297 1213)" fill="white"/>
<ellipse cx="634.297" cy="1213" rx="4.12508" ry="2.69367" transform="rotate(179.134 634.297 1213)" fill="white"/>
<ellipse cx="634.297" cy="1213" rx="4.12508" ry="2.69367" transform="rotate(179.134 634.297 1213)" fill="white"/>
<ellipse cx="1070.82" cy="942.396" rx="4.12508" ry="2.69368" transform="rotate(179.134 1070.82 942.396)" fill="white"/>
<ellipse cx="1070.82" cy="942.396" rx="4.12508" ry="2.69368" transform="rotate(179.134 1070.82 942.396)" fill="white"/>
<ellipse cx="1070.82" cy="942.396" rx="4.12508" ry="2.69368" transform="rotate(179.134 1070.82 942.396)" fill="white"/>
<ellipse cx="1070.82" cy="942.396" rx="4.12508" ry="2.69368" transform="rotate(179.134 1070.82 942.396)" fill="white"/>
<ellipse cx="931.1" cy="978.991" rx="4.12508" ry="2.69368" transform="rotate(179.134 931.1 978.991)" fill="white"/>
<ellipse cx="931.1" cy="978.991" rx="4.12508" ry="2.69368" transform="rotate(179.134 931.1 978.991)" fill="white"/>
<ellipse cx="931.1" cy="978.991" rx="4.12508" ry="2.69368" transform="rotate(179.134 931.1 978.991)" fill="white"/>
<ellipse cx="931.1" cy="978.991" rx="4.12508" ry="2.69368" transform="rotate(179.134 931.1 978.991)" fill="white"/>
<ellipse cx="987.868" cy="913.477" rx="4.12507" ry="2.69368" transform="rotate(179.134 987.868 913.477)" fill="white"/>
<ellipse cx="987.868" cy="913.477" rx="4.12507" ry="2.69368" transform="rotate(179.134 987.868 913.477)" fill="white"/>
<ellipse cx="987.868" cy="913.477" rx="4.12507" ry="2.69368" transform="rotate(179.134 987.868 913.477)" fill="white"/>
<ellipse cx="987.868" cy="913.477" rx="4.12507" ry="2.69368" transform="rotate(179.134 987.868 913.477)" fill="white"/>
<ellipse cx="674.246" cy="1017.36" rx="4.12506" ry="2.69367" transform="rotate(179.134 674.246 1017.36)" fill="white"/>
<ellipse cx="674.246" cy="1017.36" rx="4.12506" ry="2.69367" transform="rotate(179.134 674.246 1017.36)" fill="white"/>
<ellipse cx="674.246" cy="1017.36" rx="4.12506" ry="2.69367" transform="rotate(179.134 674.246 1017.36)" fill="white"/>
<ellipse cx="674.246" cy="1017.36" rx="4.12506" ry="2.69367" transform="rotate(179.134 674.246 1017.36)" fill="white"/>
<ellipse cx="531.165" cy="885.897" rx="4.12506" ry="2.69368" transform="rotate(179.134 531.165 885.897)" fill="white"/>
<ellipse cx="531.165" cy="885.897" rx="4.12506" ry="2.69368" transform="rotate(179.134 531.165 885.897)" fill="white"/>
<ellipse cx="531.165" cy="885.897" rx="4.12506" ry="2.69368" transform="rotate(179.134 531.165 885.897)" fill="white"/>
<ellipse cx="531.165" cy="885.897" rx="4.12506" ry="2.69368" transform="rotate(179.134 531.165 885.897)" fill="white"/>
<ellipse cx="780.422" cy="890.751" rx="4.12508" ry="2.69368" transform="rotate(179.134 780.422 890.751)" fill="white"/>
<ellipse cx="780.422" cy="890.751" rx="4.12508" ry="2.69368" transform="rotate(179.134 780.422 890.751)" fill="white"/>
<ellipse cx="780.422" cy="890.751" rx="4.12508" ry="2.69368" transform="rotate(179.134 780.422 890.751)" fill="white"/>
<ellipse cx="780.422" cy="890.751" rx="4.12508" ry="2.69368" transform="rotate(179.134 780.422 890.751)" fill="white"/>
<ellipse cx="1056.48" cy="1249.73" rx="4.12508" ry="2.69367" transform="rotate(179.134 1056.48 1249.73)" fill="white"/>
<ellipse cx="1056.48" cy="1249.73" rx="4.12508" ry="2.69367" transform="rotate(179.134 1056.48 1249.73)" fill="white"/>
<ellipse cx="1056.48" cy="1249.73" rx="4.12508" ry="2.69367" transform="rotate(179.134 1056.48 1249.73)" fill="white"/>
<ellipse cx="1056.48" cy="1249.73" rx="4.12508" ry="2.69367" transform="rotate(179.134 1056.48 1249.73)" fill="white"/>
</g>
<path opacity="0.6" d="M1540.66 324.676C1528.49 323.449 1516.34 321.867 1503.5 322.055C1497.13 322.149 1489.47 321.846 1482.44 324.989C1478.12 326.924 1480.05 329.101 1482.77 329.469C1486.27 329.94 1493.2 327.357 1495.49 323.33C1499.36 316.499 1492.43 312.01 1487.4 311.012C1477.42 309.031 1464.31 309.775 1452.45 315.777C1445.29 319.398 1436.73 324.596 1434.62 332.046C1432.97 337.875 1438.15 339.061 1443.68 337.941C1447.56 337.154 1450.67 334.342 1450.96 330.76C1451.16 328.354 1449.26 327.723 1447.14 327.198C1441.6 325.825 1435.24 325.328 1428.53 326.743C1418.88 328.777 1408.55 332.985 1400.37 340.728C1394.69 346.106 1394.8 351.643 1398.8 354.818C1399.1 355.053 1406.27 358.927 1407.41 356.563C1408.53 354.242 1387.57 358.842 1386.13 359.393C1375.56 363.429 1365.51 368.281 1361.99 378.942C1356.59 395.294 1366.64 401.403 1375.8 409.476" stroke="white" stroke-width="2" stroke-linecap="round" stroke-dasharray="2 2"/>
<path d="M1591.12 323.947C1591.41 324.333 1591.57 324.802 1591.57 325.285C1591.57 325.767 1591.42 326.238 1591.13 326.627C1589.15 329.408 1583.03 335.549 1568.17 335.625C1563.27 335.651 1557.36 333.91 1553.74 332.611C1552.85 332.298 1552.26 331.46 1552.25 330.507L1552.2 320.491C1552.19 319.538 1552.78 318.671 1553.66 318.349C1557.27 317.013 1563.16 315.211 1568.07 315.186C1582.92 315.109 1589.11 321.187 1591.12 323.947V323.947ZM1572.69 329.924C1575.19 329.911 1577.22 327.857 1577.21 325.359C1577.19 322.861 1575.14 320.827 1572.64 320.84C1570.14 320.853 1568.11 322.907 1568.12 325.406C1568.13 327.904 1570.19 329.937 1572.69 329.924ZM1550.99 315.706C1553.78 314.601 1560.45 312.205 1566.58 311.832L1564.86 309.275C1563.99 308.008 1562.58 307.265 1561.06 307.273L1550.95 307.325C1549.34 307.334 1548.26 308.952 1548.85 310.448L1550.99 315.706V315.706ZM1551.14 343.662L1561.24 343.61C1562.77 343.602 1564.17 342.845 1565 341.569L1566.69 338.994C1560.58 338.685 1553.87 336.335 1551.07 335.282L1548.99 340.562C1548.43 342.064 1549.53 343.67 1551.14 343.662V343.662Z" fill="white" fill-opacity="0.7"/>
<g filter="url(#filter0_d_109_80)">
<ellipse cx="2178" cy="581" rx="489" ry="432" fill="#F3DFCC" fill-opacity="0.9" shape-rendering="crispEdges"/>
</g>
<g filter="url(#filter1_d_109_80)">
<path d="M1507.9 1066.34C1536 951 1758 791 1758 791C1758 791 1661.24 870.861 1605.54 966.656C1549.84 1062.45 2280 545 2280 545C2280 545 1479.79 1181.69 1507.9 1066.34Z" fill="white" fill-opacity="0.38" shape-rendering="crispEdges"/>
</g>
<path d="M1693.5 638.5C1692.42 634.363 2207.8 219.337 2207.8 219.337L2212.82 225.5L1694.58 645.837C1694.58 645.837 1694.58 642.637 1693.5 638.5Z" fill="#D8BFA8" fill-opacity="0.8"/>
<path d="M1741.71 775.767L2246.05 365.325L2249.7 369.82L1744.5 781L1741.71 775.767Z" fill="#D8BFA8" fill-opacity="0.8"/>
<path d="M1756.3 799.956L2259.51 391L2279.71 415.819C2279.71 415.819 1778.5 825.051 1776.5 824.775C1774.5 824.5 1756.3 799.956 1756.3 799.956Z" fill="#D8BFA8" fill-opacity="0.8"/>
<path d="M1925.5 950.5L2204.68 716.713L2224.87 741.533C2224.87 741.533 1951.97 964.964 1950.46 964.294C1948.94 963.623 1925.5 950.5 1925.5 950.5Z" fill="#D8BFA8" fill-opacity="0.8"/>
<path d="M1967.97 967.885L2191.04 785.943L2195.34 791.236L1972.28 973.178C1966.83 970.447 1966.1 969.325 1967.97 967.885Z" fill="#D8BFA8" fill-opacity="0.8"/>
<g opacity="0.6">
<ellipse cx="785.208" cy="237.906" rx="3.37859" ry="3.57042" fill="white"/>
<ellipse cx="785.208" cy="237.906" rx="3.37859" ry="3.57042" fill="white"/>
<ellipse cx="785.208" cy="237.906" rx="3.37859" ry="3.57042" fill="white"/>
<ellipse cx="785.208" cy="237.906" rx="3.37859" ry="3.57042" fill="white"/>
<ellipse cx="828.454" cy="219.34" rx="3.37859" ry="3.57042" fill="white"/>
<ellipse cx="828.454" cy="219.34" rx="3.37859" ry="3.57042" fill="white"/>
<ellipse cx="828.454" cy="219.34" rx="3.37859" ry="3.57042" fill="white"/>
<ellipse cx="828.454" cy="219.34" rx="3.37859" ry="3.57042" fill="white"/>
<ellipse cx="835.211" cy="283.608" rx="3.37859" ry="3.57042" fill="white"/>
<ellipse cx="835.211" cy="283.608" rx="3.37859" ry="3.57042" fill="white"/>
<ellipse cx="835.211" cy="283.608" rx="3.37859" ry="3.57042" fill="white"/>
<ellipse cx="835.211" cy="283.608" rx="3.37859" ry="3.57042" fill="white"/>
<ellipse cx="474.379" cy="633.509" rx="3.37858" ry="3.57042" fill="white"/>
<ellipse cx="474.379" cy="633.509" rx="3.37858" ry="3.57042" fill="white"/>
<ellipse cx="474.379" cy="633.509" rx="3.37858" ry="3.57042" fill="white"/>
<ellipse cx="474.379" cy="633.509" rx="3.37858" ry="3.57042" fill="white"/>
<ellipse cx="589.25" cy="587.807" rx="3.37858" ry="3.57042" fill="white"/>
<ellipse cx="589.25" cy="587.807" rx="3.37858" ry="3.57042" fill="white"/>
<ellipse cx="589.25" cy="587.807" rx="3.37858" ry="3.57042" fill="white"/>
<ellipse cx="589.25" cy="587.807" rx="3.37858" ry="3.57042" fill="white"/>
<ellipse cx="541.95" cy="673.498" rx="3.37858" ry="3.57042" fill="white"/>
<ellipse cx="541.95" cy="673.498" rx="3.37858" ry="3.57042" fill="white"/>
<ellipse cx="541.95" cy="673.498" rx="3.37858" ry="3.57042" fill="white"/>
<ellipse cx="541.95" cy="673.498" rx="3.37858" ry="3.57042" fill="white"/>
<ellipse cx="800.074" cy="542.106" rx="3.37859" ry="3.57042" fill="white"/>
<ellipse cx="800.074" cy="542.106" rx="3.37859" ry="3.57042" fill="white"/>
<ellipse cx="800.074" cy="542.106" rx="3.37859" ry="3.57042" fill="white"/>
<ellipse cx="800.074" cy="542.106" rx="3.37859" ry="3.57042" fill="white"/>
<ellipse cx="915.622" cy="719.199" rx="3.37859" ry="3.57042" fill="white"/>
<ellipse cx="915.622" cy="719.199" rx="3.37859" ry="3.57042" fill="white"/>
<ellipse cx="915.622" cy="719.199" rx="3.37859" ry="3.57042" fill="white"/>
<ellipse cx="915.622" cy="719.199" rx="3.37859" ry="3.57042" fill="white"/>
<ellipse cx="711.555" cy="707.774" rx="3.37859" ry="3.57042" fill="white"/>
<ellipse cx="711.555" cy="707.774" rx="3.37859" ry="3.57042" fill="white"/>
<ellipse cx="711.555" cy="707.774" rx="3.37859" ry="3.57042" fill="white"/>
<ellipse cx="711.555" cy="707.774" rx="3.37859" ry="3.57042" fill="white"/>
<ellipse cx="489.92" cy="226.481" rx="3.37858" ry="3.57042" fill="white"/>
<ellipse cx="489.92" cy="226.481" rx="3.37858" ry="3.57042" fill="white"/>
<ellipse cx="489.92" cy="226.481" rx="3.37858" ry="3.57042" fill="white"/>
<ellipse cx="489.92" cy="226.481" rx="3.37858" ry="3.57042" fill="white"/>
</g>
<g opacity="0.6">
<ellipse cx="1580.8" cy="547.826" rx="4.34315" ry="4.35651" transform="rotate(101.623 1580.8 547.826)" fill="white"/>
<ellipse cx="1580.8" cy="547.826" rx="4.34315" ry="4.35651" transform="rotate(101.623 1580.8 547.826)" fill="white"/>
<ellipse cx="1580.8" cy="547.826" rx="4.34315" ry="4.35651" transform="rotate(101.623 1580.8 547.826)" fill="white"/>
<ellipse cx="1580.8" cy="547.826" rx="4.34315" ry="4.35651" transform="rotate(101.623 1580.8 547.826)" fill="white"/>
<ellipse cx="1591.79" cy="606.842" rx="4.34315" ry="4.35651" transform="rotate(101.623 1591.79 606.842)" fill="white"/>
<ellipse cx="1591.79" cy="606.842" rx="4.34315" ry="4.35651" transform="rotate(101.623 1591.79 606.842)" fill="white"/>
<ellipse cx="1591.79" cy="606.842" rx="4.34315" ry="4.35651" transform="rotate(101.623 1591.79 606.842)" fill="white"/>
<ellipse cx="1591.79" cy="606.842" rx="4.34315" ry="4.35651" transform="rotate(101.623 1591.79 606.842)" fill="white"/>
<ellipse cx="1513.23" cy="599.551" rx="4.34315" ry="4.35651" transform="rotate(101.623 1513.23 599.551)" fill="white"/>
<ellipse cx="1513.23" cy="599.551" rx="4.34315" ry="4.35651" transform="rotate(101.623 1513.23 599.551)" fill="white"/>
<ellipse cx="1513.23" cy="599.551" rx="4.34315" ry="4.35651" transform="rotate(101.623 1513.23 599.551)" fill="white"/>
<ellipse cx="1513.23" cy="599.551" rx="4.34315" ry="4.35651" transform="rotate(101.623 1513.23 599.551)" fill="white"/>
<ellipse cx="1188.5" cy="59.1974" rx="4.34315" ry="4.35652" transform="rotate(101.623 1188.5 59.1974)" fill="white"/>
<ellipse cx="1188.5" cy="59.1974" rx="4.34315" ry="4.35652" transform="rotate(101.623 1188.5 59.1974)" fill="white"/>
<ellipse cx="1188.5" cy="59.1974" rx="4.34315" ry="4.35652" transform="rotate(101.623 1188.5 59.1974)" fill="white"/>
<ellipse cx="1188.5" cy="59.1974" rx="4.34315" ry="4.35652" transform="rotate(101.623 1188.5 59.1974)" fill="white"/>
<ellipse cx="1213.37" cy="215.071" rx="4.34315" ry="4.35651" transform="rotate(101.623 1213.37 215.071)" fill="white"/>
<ellipse cx="1213.37" cy="215.071" rx="4.34315" ry="4.35651" transform="rotate(101.623 1213.37 215.071)" fill="white"/>
<ellipse cx="1213.37" cy="215.071" rx="4.34315" ry="4.35651" transform="rotate(101.623 1213.37 215.071)" fill="white"/>
<ellipse cx="1213.37" cy="215.071" rx="4.34315" ry="4.35651" transform="rotate(101.623 1213.37 215.071)" fill="white"/>
<ellipse cx="1123.21" cy="134.449" rx="4.34315" ry="4.35651" transform="rotate(101.623 1123.21 134.449)" fill="white"/>
<ellipse cx="1123.21" cy="134.449" rx="4.34315" ry="4.35651" transform="rotate(101.623 1123.21 134.449)" fill="white"/>
<ellipse cx="1123.21" cy="134.449" rx="4.34315" ry="4.35651" transform="rotate(101.623 1123.21 134.449)" fill="white"/>
<ellipse cx="1123.21" cy="134.449" rx="4.34315" ry="4.35651" transform="rotate(101.623 1123.21 134.449)" fill="white"/>
<ellipse cx="1213.39" cy="491.762" rx="4.34315" ry="4.35651" transform="rotate(101.623 1213.39 491.762)" fill="white"/>
<ellipse cx="1213.39" cy="491.762" rx="4.34315" ry="4.35651" transform="rotate(101.623 1213.39 491.762)" fill="white"/>
<ellipse cx="1213.39" cy="491.762" rx="4.34315" ry="4.35651" transform="rotate(101.623 1213.39 491.762)" fill="white"/>
<ellipse cx="1213.39" cy="491.762" rx="4.34315" ry="4.35651" transform="rotate(101.623 1213.39 491.762)" fill="white"/>
<ellipse cx="971.807" cy="593.716" rx="4.34314" ry="4.35651" transform="rotate(101.623 971.807 593.716)" fill="white"/>
<ellipse cx="971.807" cy="593.716" rx="4.34314" ry="4.35651" transform="rotate(101.623 971.807 593.716)" fill="white"/>
<ellipse cx="971.807" cy="593.716" rx="4.34314" ry="4.35651" transform="rotate(101.623 971.807 593.716)" fill="white"/>
<ellipse cx="971.807" cy="593.716" rx="4.34314" ry="4.35651" transform="rotate(101.623 971.807 593.716)" fill="white"/>
<ellipse cx="1038.31" cy="339.578" rx="4.34315" ry="4.35651" transform="rotate(101.623 1038.31 339.578)" fill="white"/>
<ellipse cx="1038.31" cy="339.578" rx="4.34315" ry="4.35651" transform="rotate(101.623 1038.31 339.578)" fill="white"/>
<ellipse cx="1038.31" cy="339.578" rx="4.34315" ry="4.35651" transform="rotate(101.623 1038.31 339.578)" fill="white"/>
<ellipse cx="1038.31" cy="339.578" rx="4.34315" ry="4.35651" transform="rotate(101.623 1038.31 339.578)" fill="white"/>
<ellipse cx="1670.93" cy="178.827" rx="4.34315" ry="4.35651" transform="rotate(101.623 1670.93 178.827)" fill="white"/>
<ellipse cx="1670.93" cy="178.827" rx="4.34315" ry="4.35651" transform="rotate(101.623 1670.93 178.827)" fill="white"/>
<ellipse cx="1670.93" cy="178.827" rx="4.34315" ry="4.35651" transform="rotate(101.623 1670.93 178.827)" fill="white"/>
<ellipse cx="1670.93" cy="178.827" rx="4.34315" ry="4.35651" transform="rotate(101.623 1670.93 178.827)" fill="white"/>
</g>
</g>
<defs>
<filter id="filter0_d_109_80" x="1609" y="77.0002" width="1138" height="1024" filterUnits="userSpaceOnUse" color-interpolation-filters="sRGB">
<feFlood flood-opacity="0" result="BackgroundImageFix"/>
<feColorMatrix in="SourceAlpha" type="matrix" values="0 0 0 0 0 0 0 0 0 0 0 0 0 0 0 0 0 0 127 0" result="hardAlpha"/>
<feOffset dy="8"/>
<feGaussianBlur stdDeviation="40"/>
<feComposite in2="hardAlpha" operator="out"/>
<feColorMatrix type="matrix" values="0 0 0 0 0 0 0 0 0 0 0 0 0 0 0 0 0 0 0.25 0"/>
<feBlend mode="normal" in2="BackgroundImageFix" result="effect1_dropShadow_109_80"/>
<feBlend mode="normal" in="SourceGraphic" in2="effect1_dropShadow_109_80" result="shape"/>
</filter>
<filter id="filter1_d_109_80" x="1503.17" y="545" width="780.828" height="543.317" filterUnits="userSpaceOnUse" color-interpolation-filters="sRGB">
<feFlood flood-opacity="0" result="BackgroundImageFix"/>
<feColorMatrix in="SourceAlpha" type="matrix" values="0 0 0 0 0 0 0 0 0 0 0 0 0 0 0 0 0 0 127 0" result="hardAlpha"/>
<feOffset dy="4"/>
<feGaussianBlur stdDeviation="2"/>
<feComposite in2="hardAlpha" operator="out"/>
<feColorMatrix type="matrix" values="0 0 0 0 0 0 0 0 0 0 0 0 0 0 0 0 0 0 0.25 0"/>
<feBlend mode="normal" in2="BackgroundImageFix" result="effect1_dropShadow_109_80"/>
<feBlend mode="normal" in="SourceGraphic" in2="effect1_dropShadow_109_80" result="shape"/>
</filter>
<clipPath id="clip0_109_80">
<rect width="2204" height="1307" fill="white"/>
</clipPath>
</defs>
</svg>
